<?xml version="1.0" standalone="no"?>
<!DOCTYPE svg PUBLIC "-//W3C//DTD SVG 20010904//EN"
 "http://www.w3.org/TR/2001/REC-SVG-20010904/DTD/svg10.dtd">
<svg version="1.0" xmlns="http://www.w3.org/2000/svg"
 width="972.000000pt" height="1280.000000pt" viewBox="0 0 972.000000 1280.000000"
 preserveAspectRatio="xMidYMid meet">
<metadata>
Created by potrace 1.15, written by Peter Selinger 2001-2017
</metadata>
<g transform="translate(0.000000,1280.000000) scale(0.100000,-0.100000)"
fill="#000000" stroke="none">
<path d="M8320 12781 c-166 -53 -340 -191 -456 -361 -34 -51 -52 -69 -63 -65
-89 35 -315 59 -466 51 -282 -15 -548 -84 -837 -216 l-128 -59 -132 50 c-173
65 -433 147 -628 197 -142 37 -451 102 -543 116 l-39 5 34 -42 c402 -495 675
-911 737 -1122 11 -39 25 -130 31 -205 23 -294 74 -512 160 -685 90 -183 124
-345 124 -590 0 -165 -11 -262 -45 -400 -34 -139 -47 -168 -87 -198 -91 -69
-276 -243 -390 -367 -647 -703 -1083 -1551 -1286 -2505 -184 -861 -160 -1816
69 -2795 19 -79 33 -145 32 -147 -2 -1 -32 5 -67 13 -715 168 -1495 211 -2150
118 -647 -92 -1219 -317 -1611 -632 -103 -83 -274 -262 -337 -355 -168 -244
-254 -560 -239 -876 32 -648 428 -1097 1257 -1424 557 -220 1075 -333 1216
-266 40 19 68 80 72 161 10 161 -90 286 -316 398 -94 47 -145 66 -325 120
-307 94 -533 224 -754 434 -129 123 -219 241 -283 371 -62 125 -81 196 -81
309 1 143 41 239 148 349 190 196 539 302 928 282 201 -10 272 -20 990 -134
380 -61 598 -86 1125 -131 757 -64 914 -71 1455 -64 341 5 522 3 700 -7 356
-21 636 -18 753 8 l93 20 87 -27 c120 -39 295 -69 437 -76 143 -8 300 12 420
51 80 26 80 26 247 16 403 -26 729 -1 844 64 143 83 164 366 39 537 -45 61
-103 94 -199 113 -100 19 -135 39 -163 95 -33 65 -30 99 16 156 183 232 358
576 469 924 208 653 209 1413 1 2130 l-42 145 12 125 c16 163 53 426 96 677
106 617 254 1138 429 1515 35 74 36 82 42 225 4 87 2 199 -5 272 -28 305 -78
441 -343 926 -248 456 -339 662 -423 960 -55 195 -84 359 -120 681 -49 434
-85 629 -156 830 -39 113 -82 193 -132 250 -68 77 -113 89 -217 55z"/>
</g>
</svg>
