<?xml version="1.0" standalone="no"?>
<!DOCTYPE svg PUBLIC "-//W3C//DTD SVG 20010904//EN"
 "http://www.w3.org/TR/2001/REC-SVG-20010904/DTD/svg10.dtd">
<svg version="1.0" xmlns="http://www.w3.org/2000/svg"
 width="1280.000000pt" height="1280.000000pt" viewBox="0 0 1280.000000 1280.000000"
 preserveAspectRatio="xMidYMid meet">
<metadata>
Created by potrace 1.15, written by Peter Selinger 2001-2017
</metadata>
<g transform="translate(0.000000,1280.000000) scale(0.100000,-0.100000)"
fill="#000000" stroke="none">
<path d="M5830 12233 c-38 -17 -124 -70 -152 -91 -28 -23 -152 -146 -171 -170
-10 -13 -27 -40 -38 -60 -11 -20 -24 -44 -28 -52 -37 -67 -41 -92 -41 -264 0
-146 -3 -176 -16 -187 -12 -10 -14 -25 -10 -68 21 -221 32 -257 86 -267 60
-12 94 -67 91 -147 -1 -27 3 -55 9 -62 18 -21 6 -304 -15 -360 -8 -23 -61
-138 -81 -175 -9 -17 -63 -51 -178 -110 -235 -121 -309 -160 -327 -176 -8 -8
-19 -14 -23 -14 -5 0 -67 -39 -138 -86 -170 -113 -221 -165 -286 -296 -29 -57
-52 -109 -52 -115 0 -6 -6 -24 -14 -40 -8 -15 -22 -48 -31 -73 -21 -54 -28
-70 -54 -132 -12 -26 -21 -51 -21 -56 0 -8 -21 -57 -39 -92 -5 -9 -12 -36 -16
-60 -4 -25 -11 -49 -15 -55 -8 -10 -15 -51 -24 -135 -24 -213 -30 -260 -38
-260 -13 0 -10 -294 4 -308 9 -9 9 -15 0 -24 -7 -7 -12 -35 -12 -63 0 -47 -7
-82 -31 -165 -12 -40 -38 -166 -46 -224 -6 -44 9 -122 40 -211 26 -73 26 -72
33 -115 4 -19 10 -39 14 -45 5 -5 11 -37 15 -70 8 -60 52 -211 80 -272 8 -17
15 -34 15 -37 0 -6 13 -35 70 -161 36 -78 160 -395 160 -407 0 -4 11 -31 24
-60 13 -29 36 -80 50 -113 38 -84 82 -147 202 -287 137 -161 154 -196 154
-325 0 -57 -5 -104 -11 -110 -13 -13 -6 -207 10 -283 10 -47 51 -161 82 -235
11 -25 26 -96 45 -208 26 -159 43 -261 59 -352 9 -49 21 -130 28 -180 7 -49
16 -96 21 -104 9 -13 23 -370 32 -781 2 -118 8 -224 13 -235 5 -11 14 -65 20
-120 6 -55 18 -138 27 -185 8 -47 21 -121 27 -165 7 -44 15 -84 18 -90 4 -5
10 -46 14 -90 4 -44 11 -84 15 -90 4 -5 11 -67 15 -138 4 -70 11 -129 15 -132
4 -3 11 -63 15 -135 4 -72 11 -132 15 -135 4 -3 11 -61 15 -130 4 -69 11 -128
16 -131 27 -16 1 -85 -57 -152 -20 -24 -49 -67 -64 -97 -27 -54 -28 -55 -10
-78 22 -27 101 -197 93 -197 -3 0 2 -9 12 -20 24 -26 15 -99 -19 -160 -79
-143 -146 -276 -146 -293 0 -7 -7 -22 -15 -33 -19 -26 -18 -64 3 -91 9 -11 46
-44 82 -73 l65 -52 155 4 c154 4 155 4 219 39 78 42 137 108 253 284 102 154
128 214 128 295 0 32 4 61 9 64 4 3 11 40 15 82 3 42 10 82 16 89 5 7 13 40
16 74 4 34 11 64 15 67 11 7 12 141 1 148 -5 3 -9 20 -10 38 -1 18 -6 56 -12
83 -6 28 -16 75 -21 105 -6 30 -14 64 -20 75 -27 60 -32 228 -36 1269 -2 637
1 1073 6 1080 5 6 12 63 16 126 4 63 11 120 15 125 4 6 10 57 14 115 4 57 11
109 15 115 5 5 12 39 16 75 4 36 11 70 16 76 5 6 12 51 15 100 4 49 10 94 15
100 4 5 11 48 14 95 7 89 22 139 37 117 4 -7 8 -25 8 -39 0 -14 3 -29 7 -33 4
-3 8 -14 9 -24 1 -9 12 -46 25 -82 67 -192 95 -282 105 -335 3 -22 10 -44 14
-50 4 -5 11 -26 14 -45 4 -19 11 -44 16 -55 5 -11 19 -51 30 -90 12 -38 26
-79 30 -90 5 -11 18 -47 29 -80 45 -133 72 -211 81 -230 14 -34 50 -157 50
-175 0 -9 3 -20 7 -24 7 -7 8 -13 19 -81 4 -22 10 -44 14 -50 5 -5 11 -40 15
-78 4 -37 11 -69 15 -72 4 -3 11 -41 15 -85 4 -44 11 -82 15 -85 5 -3 11 -43
15 -90 4 -47 11 -87 15 -90 5 -3 11 -53 15 -112 4 -60 11 -112 15 -118 4 -5
11 -66 15 -135 4 -69 10 -129 14 -135 3 -5 11 -64 18 -130 15 -152 38 -326 53
-390 6 -27 12 -59 15 -70 9 -44 37 -244 41 -300 3 -33 9 -69 14 -80 4 -11 11
-65 14 -120 3 -55 10 -113 15 -130 6 -16 20 -59 32 -95 11 -36 25 -74 30 -85
5 -11 18 -44 29 -73 25 -67 72 -162 110 -227 52 -89 73 -129 83 -165 6 -19 13
-134 16 -255 7 -247 13 -269 87 -334 70 -62 114 -75 260 -75 145 -1 155 2 238
67 77 59 81 68 80 184 0 73 -4 106 -14 119 -11 13 -16 56 -18 178 -2 89 -8
165 -13 170 -12 13 -12 69 0 82 5 5 11 69 13 141 2 86 8 137 16 145 7 7 12 19
12 27 0 9 7 30 16 46 25 48 21 106 -15 192 -18 43 -37 86 -42 96 -5 10 -23 57
-39 106 -29 87 -41 160 -61 391 -5 63 -14 124 -19 135 -5 11 -14 85 -19 165
-19 270 -31 395 -41 415 -5 11 -11 38 -14 60 -13 111 -60 358 -76 411 -6 17
-10 42 -10 57 0 14 -5 36 -10 49 -6 13 -15 91 -20 173 -6 83 -17 236 -26 340
-8 105 -20 359 -27 565 -7 206 -15 380 -18 385 -4 6 -10 91 -13 190 -4 99 -11
194 -16 210 -5 17 -13 80 -19 140 -5 61 -16 144 -25 185 -30 148 -41 195 -47
205 -10 16 -23 116 -21 169 1 27 11 69 22 93 37 80 61 128 82 163 75 128 145
279 153 330 1 8 5 22 8 30 3 8 10 38 15 65 21 101 34 150 43 160 5 5 9 19 9
31 0 12 7 35 15 50 8 16 15 37 15 46 0 9 4 19 9 23 6 3 13 26 17 50 3 25 10
48 15 51 5 3 9 22 9 42 0 20 6 49 14 63 7 14 16 43 20 65 12 66 28 91 71 112
l42 20 6 187 c3 112 10 192 16 198 6 6 11 17 11 25 0 8 6 28 13 45 28 66 34
94 31 157 -3 77 -13 159 -22 180 -3 8 -11 47 -18 85 -6 39 -19 95 -27 125 -9
30 -21 75 -27 100 -6 25 -15 53 -20 62 -6 9 -13 35 -16 58 -4 22 -11 43 -15
46 -5 3 -9 13 -9 23 0 17 -34 137 -50 176 -4 11 -22 61 -40 110 -18 50 -43
114 -57 144 -46 102 -144 353 -175 446 -37 112 -119 268 -176 333 -78 89 -230
183 -382 235 -25 9 -83 30 -130 47 -78 29 -186 64 -235 77 -164 43 -268 205
-268 418 0 73 18 182 33 200 4 5 11 31 15 58 4 26 11 49 15 52 5 3 11 23 15
45 4 22 11 42 15 45 5 3 12 27 16 53 3 26 11 52 16 59 11 14 5 159 -15 368
-17 170 -25 210 -64 286 -72 143 -165 213 -392 296 -80 29 -235 32 -291 6z
m-854 -4150 c8 -17 14 -49 14 -70 0 -21 4 -43 9 -48 6 -6 13 -62 17 -125 3
-63 11 -120 16 -127 5 -7 7 -43 4 -80 -13 -173 -28 -300 -36 -318 -5 -11 -14
-58 -19 -105 -6 -47 -15 -110 -20 -140 -5 -30 -10 -87 -10 -127 -1 -39 -5 -75
-11 -78 -6 -3 -10 -48 -10 -101 0 -56 -4 -94 -10 -94 -5 0 -10 17 -10 39 0 21
-7 58 -15 81 -8 23 -15 61 -15 85 0 23 -3 45 -7 49 -5 4 -14 49 -20 99 -7 51
-20 139 -28 197 -9 58 -22 146 -28 197 -7 50 -15 95 -19 99 -11 10 -10 104 1
104 5 0 11 19 15 42 4 23 11 47 15 53 5 5 11 38 14 73 3 34 10 68 15 75 5 7
13 28 17 47 4 19 11 40 15 45 4 6 13 30 18 55 41 169 52 193 65 140 5 -19 16
-49 23 -67z m2400 -193 c32 -13 32 -14 27 -74 -2 -34 -9 -71 -15 -83 -6 -11
-7 -38 -4 -60 4 -21 10 -67 15 -103 4 -36 13 -74 19 -86 15 -28 15 -28 14
-266 0 -214 -3 -276 -13 -293 -4 -5 -10 -28 -14 -50 l-8 -40 -9 40 c-5 22 -13
72 -19 110 -5 39 -14 79 -19 90 -5 11 -12 101 -15 200 -4 99 -11 188 -17 198
-13 25 6 442 20 434 4 -2 21 -10 38 -17z"/>
</g>
</svg>
