<?xml version="1.0" standalone="no"?>
<!DOCTYPE svg PUBLIC "-//W3C//DTD SVG 20010904//EN"
 "http://www.w3.org/TR/2001/REC-SVG-20010904/DTD/svg10.dtd">
<svg version="1.0" xmlns="http://www.w3.org/2000/svg"
 width="1280.000000pt" height="1173.000000pt" viewBox="0 0 1280.000000 1173.000000"
 preserveAspectRatio="xMidYMid meet">
<g transform="translate(0.000000,1173.000000) scale(0.100000,-0.100000)"
fill="#000000" stroke="none">
<path d="M11 11716 c-10 -11 -10 -20 -3 -29 6 -6 69 -129 141 -272 125 -250
307 -563 414 -710 28 -38 178 -218 333 -400 217 -253 321 -366 446 -482 90
-84 181 -167 204 -185 23 -18 79 -65 125 -104 216 -183 449 -346 761 -535 101
-60 187 -115 192 -122 5 -8 -3 -35 -23 -75 -125 -248 -197 -554 -261 -1109
-32 -282 -85 -473 -194 -705 -136 -290 -131 -371 49 -728 117 -230 216 -360
479 -628 95 -96 109 -115 100 -130 -259 -403 -352 -633 -399 -978 -25 -188
-31 -528 -11 -644 40 -229 188 -570 367 -848 l92 -143 -18 -64 c-9 -35 -62
-155 -117 -267 -178 -361 -218 -482 -225 -680 -8 -206 32 -332 174 -537 90
-132 140 -189 244 -279 49 -42 89 -83 89 -90 0 -7 -29 -50 -64 -95 -127 -164
-220 -332 -251 -453 -17 -68 -10 -105 23 -123 11 -6 23 -22 26 -36 4 -16 13
-25 26 -25 11 0 40 -7 66 -16 l47 -16 102 51 c151 75 440 272 609 416 106 90
116 92 376 100 458 13 665 25 791 47 167 29 333 28 504 -1 72 -12 299 -58 505
-101 206 -44 433 -87 505 -98 95 -13 131 -22 133 -33 1 -8 -25 -76 -58 -153
-85 -192 -104 -287 -68 -333 17 -22 130 -73 161 -73 17 0 39 -7 49 -16 17 -16
23 -14 104 25 95 46 285 170 409 266 44 34 163 146 265 247 151 151 197 191
250 218 191 95 365 249 482 425 36 55 105 173 153 263 209 392 304 688 311
961 2 73 5 136 8 138 2 3 62 24 133 48 70 24 238 83 373 133 135 50 265 96
289 103 74 22 73 34 -9 215 -97 213 -160 371 -160 400 0 30 10 35 305 157 286
118 377 158 450 193 l57 28 -6 42 c-5 37 -45 175 -217 739 -27 88 -48 166 -47
173 2 8 32 24 68 37 36 13 211 75 390 138 511 180 481 166 469 229 -4 24 -23
88 -43 143 -19 55 -80 251 -136 435 -56 184 -119 391 -141 459 -44 139 -46
157 -21 165 9 3 112 31 227 62 308 82 549 158 1355 428 759 255 876 297 970
347 l58 30 -38 112 c-73 216 -155 393 -582 1262 -179 363 -351 715 -384 782
-41 85 -64 122 -76 122 -35 2 -109 -37 -498 -254 -360 -202 -499 -289 -1575
-984 -649 -420 -1195 -774 -1212 -787 -18 -14 -33 -33 -33 -43 0 -10 30 -61
67 -112 98 -138 1191 -1786 1213 -1829 10 -20 15 -41 12 -47 -4 -5 -38 -20
-77 -33 -38 -13 -173 -63 -300 -113 -126 -49 -299 -115 -384 -148 -85 -32
-158 -64 -163 -71 -11 -18 -3 -47 49 -173 53 -131 274 -670 314 -770 16 -38
28 -79 28 -90 0 -16 -56 -49 -297 -171 -284 -145 -297 -153 -295 -179 1 -15
56 -138 122 -274 122 -253 161 -340 161 -367 0 -15 -355 -196 -412 -210 -37
-8 -40 0 -83 256 -48 283 -58 331 -180 830 -246 1012 -294 1243 -425 2045 -69
426 -103 677 -150 1105 -93 861 -101 900 -300 1409 -39 101 -69 189 -66 196 2
7 27 15 56 19 62 8 238 53 420 108 607 180 1062 379 1488 649 501 319 719 496
1088 886 164 175 234 261 234 290 0 16 -165 18 -342 3 -64 -5 -221 -14 -350
-20 -128 -5 -294 -15 -368 -21 -305 -24 -1021 -202 -1420 -351 -476 -179
-1040 -484 -1489 -804 -19 -13 -43 -24 -54 -24 -10 0 -67 21 -126 46 -371 162
-706 255 -1081 301 -200 24 -646 24 -850 0 -363 -44 -629 -110 -1009 -252
l-154 -58 -31 39 c-17 21 -112 129 -211 239 -471 524 -863 855 -1485 1252
-337 215 -463 287 -605 351 -438 195 -663 288 -792 323 -115 31 -127 33 -142
15z"/>
</g>
</svg>
